<svg id="f60fc34e-a8fb-47a5-abe2-088bab1cdc33" data-name="Layer 1" xmlns="http://www.w3.org/2000/svg" viewBox="0 0 1024 1024"><defs><style>.ad323d10-c826-4e82-b8f1-e424c18ecc41,.bf2a5532-9652-415f-adf3-b9cd8e96fbba{fill:#fff;stroke:#fff;stroke-miterlimit:10;}.bf2a5532-9652-415f-adf3-b9cd8e96fbba{stroke-width:10px;}</style></defs><path d="M150.55,1018.5a145.48,145.48,0,0,1-145-145V149.55A145.48,145.48,0,0,1,150.55,4.5h723.9a145.48,145.48,0,0,1,145,145.05v723.9a145.48,145.48,0,0,1-145,145Z"/><path d="M874.45,9.5a140.5,140.5,0,0,1,140,140.05v723.9a140.5,140.5,0,0,1-140,140H150.55a140.5,140.5,0,0,1-140-140V149.55A140.5,140.5,0,0,1,150.55,9.5h723.9m0-10H150.55C68-.5.5,67,.5,149.55v723.9c0,82.53,67.52,150,150.05,150h723.9c82.53,0,150-67.52,150-150V149.55c0-82.53-67.52-150-150-150Z"/><circle class="bf2a5532-9652-415f-adf3-b9cd8e96fbba" cx="512" cy="731" r="50"/><circle class="ad323d10-c826-4e82-b8f1-e424c18ecc41" cx="312" cy="731" r="50"/><circle class="bf2a5532-9652-415f-adf3-b9cd8e96fbba" cx="712" cy="731" r="50"/></svg>